<svg width="216" height="31" viewBox="0 0 216 31" fill="none" xmlns="http://www.w3.org/2000/svg">
<g filter="url(#filter0_d_4247_913)">
<path d="M57.14 9.36088L53.2913 21.8192H50.678L48.3308 14.0933C48.3308 13.9793 48.2453 13.8462 48.2073 13.6942C48.1692 13.5422 48.1312 13.3996 48.0837 13.2381C48.0457 13.4028 48.0077 13.5548 47.9697 13.6942C47.9352 13.8303 47.8908 13.9637 47.8366 14.0933L45.4609 21.8192H42.8476L38.9609 9.36088H41.3842C41.606 9.35109 41.8253 9.41089 42.0114 9.53193C42.1741 9.63408 42.2927 9.79339 42.344 9.97856L44.0545 16.4785C44.102 16.6876 44.159 16.9157 44.2065 17.1533C44.2541 17.3908 44.3111 17.6474 44.3586 17.9135C44.4477 17.426 44.5748 16.9462 44.7387 16.4785L46.7533 9.97856C46.8203 9.80677 46.9359 9.65819 47.0859 9.55093C47.2607 9.41948 47.4755 9.35235 47.6941 9.36088H48.5494C48.7657 9.34686 48.9803 9.40722 49.1576 9.53193C49.3148 9.64435 49.4368 9.79929 49.5092 9.97856L51.5143 16.4785C51.6731 16.9212 51.797 17.3755 51.8849 17.8375C51.8849 17.5809 51.9799 17.3433 52.0274 17.1152C52.0749 16.8872 52.132 16.6781 52.1795 16.4785L53.89 9.97856C53.9479 9.80191 54.0612 9.64862 54.2131 9.54143C54.3943 9.41658 54.6109 9.35328 54.8308 9.36088H57.14Z" fill="white"/>
<path d="M61.7684 11.5845V14.4924H65.6836V16.6306H61.7684V19.5955H66.881V21.8191H58.832V9.36084H66.8525V11.5845H61.7684Z" fill="white"/>
<path d="M75.9568 11.8885C75.8856 12.0066 75.7957 12.1125 75.6907 12.202C75.5831 12.2702 75.4569 12.3034 75.3296 12.2971C75.1787 12.2939 75.0313 12.2513 74.902 12.1735L74.3888 11.898C74.1802 11.784 73.9605 11.6916 73.7331 11.6224C73.4634 11.534 73.1806 11.4922 72.8969 11.4988C72.4667 11.4658 72.0389 11.5871 71.69 11.8409C71.5553 11.9583 71.4492 12.105 71.3801 12.2697C71.3109 12.4345 71.2804 12.6129 71.2909 12.7912C71.2864 12.9049 71.3051 13.0184 71.346 13.1246C71.3868 13.2308 71.4489 13.3275 71.5285 13.4089C71.7066 13.5922 71.92 13.7376 72.1557 13.8365C72.4442 13.9707 72.7429 14.0819 73.0489 14.1691C73.3815 14.2737 73.7236 14.3782 74.0657 14.5017C74.4175 14.6237 74.7604 14.7698 75.0921 14.9389C75.4212 15.0992 75.7227 15.3109 75.9853 15.5661C76.2527 15.8402 76.4656 16.1627 76.6125 16.5164C76.7827 16.9387 76.8636 17.3917 76.8501 17.8468C76.852 18.3997 76.7488 18.9479 76.546 19.4623C76.3545 19.956 76.0597 20.4032 75.6812 20.7737C75.279 21.1583 74.8041 21.4587 74.2843 21.6574C73.6748 21.8753 73.0309 21.9815 72.3837 21.971C71.987 21.9578 71.5925 21.9069 71.2054 21.819C70.8061 21.7409 70.4148 21.6264 70.0365 21.4769C69.6668 21.3386 69.3106 21.1668 68.9722 20.9637C68.6598 20.7753 68.3697 20.5522 68.1074 20.2985L68.9627 18.9396C69.0362 18.8414 69.1303 18.7603 69.2383 18.702C69.3461 18.6332 69.4715 18.5969 69.5994 18.5975C69.7824 18.6008 69.9606 18.6569 70.1125 18.7591L70.7017 19.1202C70.9429 19.2648 71.1975 19.3857 71.4619 19.4813C71.7856 19.5941 72.1266 19.6488 72.4693 19.6428C72.9046 19.6685 73.336 19.5481 73.6951 19.3007C73.8428 19.1635 73.9578 18.995 74.0318 18.8076C74.1058 18.6201 74.1369 18.4184 74.1228 18.2174C74.1303 17.9592 74.0461 17.7067 73.8852 17.5047C73.7085 17.3106 73.4911 17.1581 73.2485 17.058C72.9635 16.9256 72.6679 16.8175 72.3647 16.7349C72.0321 16.6494 71.6995 16.5449 71.3479 16.4308C70.9957 16.3215 70.6526 16.1849 70.3216 16.0222C69.6248 15.6943 69.0829 15.1081 68.8106 14.3877C68.6378 13.9198 68.5571 13.4228 68.5731 12.9243C68.5799 12.451 68.6838 11.9841 68.8783 11.5526C69.0728 11.1211 69.3538 10.734 69.7039 10.4155C70.0899 10.0497 70.5456 9.76526 71.0438 9.57925C71.6269 9.36115 72.2459 9.25476 72.8684 9.26565C73.2411 9.26346 73.6133 9.29526 73.9802 9.36068C74.3335 9.41449 74.6805 9.50363 75.016 9.62676C75.3459 9.73431 75.6642 9.87438 75.9663 10.0449C76.2415 10.1965 76.4969 10.3816 76.7266 10.5961L75.9568 11.8885Z" fill="white"/>
<path d="M87.9509 11.651H84.4443V21.8191H81.5934V11.651H78.0488V9.36084H87.9509V11.651Z" fill="white"/>
<path d="M92.7673 11.5845V14.4924H96.6825V16.6306H92.7673V19.5955H97.8798V21.8191H89.8594V9.36084H97.8798V11.5845H92.7673Z" fill="white"/>
<path d="M110.3 21.8192H107.677C107.47 21.8353 107.263 21.792 107.079 21.6944C106.896 21.5967 106.744 21.4488 106.642 21.268L104.532 17.6569C104.45 17.5213 104.339 17.4047 104.209 17.3148C104.049 17.2389 103.873 17.203 103.696 17.2102H102.954V21.8192H100.104V9.36085H104.161C104.937 9.34281 105.711 9.4356 106.461 9.63643C107.027 9.78561 107.557 10.0474 108.019 10.4062C108.406 10.7183 108.707 11.1239 108.894 11.5845C109.079 12.0501 109.172 12.547 109.169 13.048C109.17 13.437 109.116 13.8242 109.008 14.1978C108.904 14.5538 108.744 14.8907 108.533 15.1956C108.312 15.506 108.046 15.7815 107.744 16.0129C107.417 16.2611 107.055 16.4597 106.67 16.6021C106.862 16.699 107.041 16.8204 107.202 16.9632C107.373 17.1176 107.523 17.2932 107.649 17.4858L110.3 21.8192ZM104.161 15.2146C104.484 15.2182 104.806 15.1668 105.112 15.0626C105.366 14.9763 105.599 14.837 105.796 14.654C105.969 14.4808 106.1 14.2692 106.176 14.0363C106.261 13.7888 106.303 13.5283 106.299 13.2665C106.312 13.0265 106.271 12.7866 106.179 12.5646C106.087 12.3426 105.946 12.144 105.767 11.9836C105.287 11.6402 104.702 11.4754 104.114 11.518H102.945V15.2146H104.161Z" fill="white"/>
<path d="M122.674 9.36084V21.8191H121.172C120.98 21.8241 120.789 21.7884 120.612 21.7146C120.439 21.623 120.287 21.4969 120.165 21.344L114.283 13.9032C114.283 14.1313 114.283 14.3499 114.283 14.5494C114.283 14.749 114.283 14.958 114.283 15.1386V21.7906H111.727V9.36084H113.57L113.798 9.42736C113.869 9.46502 113.936 9.50959 113.998 9.5604C114.072 9.63238 114.142 9.70853 114.207 9.78847L120.137 17.2768C120.137 17.0392 120.137 16.8016 120.08 16.583C120.023 16.3645 120.08 16.1459 120.08 15.9464V9.36084H122.674Z" fill="white"/>
<path d="M136.842 11.8886C136.767 12.0072 136.674 12.1131 136.566 12.2022C136.459 12.2715 136.333 12.3048 136.205 12.2972C136.057 12.2937 135.913 12.2511 135.787 12.1737L135.274 11.8981C135.065 11.7841 134.846 11.6918 134.618 11.6225C134.348 11.5348 134.066 11.4931 133.782 11.4989C133.349 11.4661 132.918 11.5873 132.566 11.8411C132.431 11.9584 132.325 12.1051 132.256 12.2698C132.186 12.4346 132.156 12.613 132.166 12.7913C132.164 12.9057 132.184 13.0193 132.227 13.1255C132.269 13.2317 132.333 13.3281 132.413 13.409C132.589 13.596 132.803 13.742 133.041 13.8367C133.325 13.9724 133.621 14.0837 133.924 14.1693C134.257 14.2738 134.599 14.3783 134.951 14.5019C135.299 14.6256 135.638 14.7717 135.968 14.939C136.3 15.0946 136.602 15.3068 136.861 15.5662C137.128 15.8403 137.341 16.1628 137.488 16.5165C137.658 16.9388 137.739 17.3918 137.726 17.8469C137.731 18.3992 137.631 18.9475 137.431 19.4624C137.237 19.955 136.943 20.4016 136.566 20.7738C136.161 21.1587 135.683 21.4591 135.16 21.6575C134.55 21.8758 133.907 21.982 133.259 21.9711C132.866 21.9568 132.474 21.9059 132.09 21.8191C131.692 21.7385 131.301 21.624 130.922 21.477C130.554 21.3406 130.201 21.1687 129.867 20.9638C129.553 20.7779 129.262 20.5545 129.002 20.2986L129.857 18.9397C129.927 18.8417 130.018 18.7605 130.123 18.7021C130.232 18.6347 130.357 18.5986 130.484 18.5976C130.67 18.6041 130.85 18.6599 131.007 18.7592L131.596 19.1203C131.834 19.265 132.086 19.3859 132.347 19.4814C132.671 19.5934 133.012 19.6481 133.354 19.6429C133.79 19.6732 134.223 19.5524 134.58 19.3008C134.734 19.1639 134.853 18.9929 134.929 18.8015C135.005 18.6101 135.035 18.4036 135.017 18.1985C135.029 17.9397 134.944 17.6857 134.78 17.4858C134.605 17.294 134.391 17.1417 134.153 17.0391C133.867 16.9083 133.571 16.8002 133.269 16.716C132.936 16.6305 132.594 16.526 132.242 16.4119C131.893 16.3021 131.554 16.1655 131.226 16.0033C130.898 15.8404 130.6 15.6253 130.342 15.3666C130.071 15.0774 129.858 14.7386 129.715 14.3688C129.542 13.9009 129.461 13.4039 129.477 12.9054C129.478 12.4346 129.575 11.969 129.762 11.537C129.953 11.0881 130.234 10.6836 130.589 10.3491C130.975 9.98326 131.431 9.69886 131.929 9.51284C132.512 9.29474 133.131 9.18836 133.753 9.19925C134.126 9.19705 134.498 9.22886 134.865 9.29427C135.219 9.34574 135.566 9.43494 135.901 9.56036C136.23 9.67054 136.548 9.8105 136.851 9.97848C137.122 10.1326 137.374 10.3175 137.602 10.5297L136.842 11.8886Z" fill="white"/>
<path d="M150.727 9.36084V21.8191H147.819V16.5545H142.754V21.8191H139.846V9.36084H142.754V14.5684H147.819V9.36084H150.727Z" fill="white"/>
<path d="M156.494 21.8191H153.586V9.36084H156.494V21.8191Z" fill="white"/>
<path d="M163.744 9.36072C164.51 9.34466 165.273 9.45052 166.006 9.67431C166.579 9.84786 167.11 10.1392 167.564 10.5296C167.962 10.8835 168.272 11.3263 168.467 11.822C168.66 12.335 168.757 12.8796 168.752 13.428C168.761 14.0115 168.661 14.5916 168.457 15.1385C168.254 15.6555 167.928 16.1153 167.507 16.4784C167.053 16.872 166.523 17.1665 165.949 17.3432C165.226 17.5657 164.472 17.6716 163.715 17.6568H162.204V21.819H159.354V9.36072H163.744ZM163.744 15.4711C164.037 15.4989 164.334 15.465 164.614 15.3718C164.893 15.2785 165.151 15.1278 165.369 14.9294C165.723 14.5124 165.9 13.9737 165.863 13.428C165.868 13.163 165.826 12.8993 165.739 12.6487C165.656 12.4223 165.523 12.2176 165.35 12.05C165.161 11.8712 164.933 11.738 164.685 11.6604C164.378 11.5595 164.057 11.5113 163.734 11.5179H162.223V15.4711H163.744Z" fill="white"/>
<path d="M175.062 9.36087C175.828 9.344 176.592 9.44987 177.324 9.67447C177.898 9.84591 178.429 10.1374 178.882 10.5297C179.284 10.8809 179.593 11.3245 179.785 11.8221C179.987 12.3333 180.087 12.8787 180.08 13.4281C180.086 14.0123 179.983 14.5924 179.776 15.1386C179.569 15.6542 179.244 16.1134 178.825 16.4785C178.372 16.8721 177.841 17.1667 177.267 17.3433C176.541 17.5665 175.784 17.6724 175.024 17.6569H173.523V21.8192H170.672V9.36087H175.062ZM175.062 15.4712C175.356 15.5008 175.653 15.4678 175.933 15.3745C176.213 15.2811 176.47 15.1295 176.687 14.9296C177.044 14.5135 177.224 13.975 177.191 13.4281C177.192 13.1626 177.147 12.8988 177.058 12.6489C176.966 12.422 176.825 12.2187 176.644 12.0542C176.463 11.8897 176.247 11.7681 176.013 11.6986C175.706 11.5976 175.385 11.5494 175.062 11.556H173.561V15.5092L175.062 15.4712Z" fill="white"/>
<path d="M184.898 21.8191H181.99V9.36084H184.898V21.8191Z" fill="white"/>
<path d="M198.609 9.36084V21.8191H197.098C196.906 21.823 196.715 21.7874 196.537 21.7146C196.368 21.618 196.217 21.4926 196.091 21.344L190.218 13.9032C190.218 14.1313 190.218 14.3499 190.266 14.5494C190.313 14.749 190.266 14.958 190.266 15.1386V21.7906H187.719V9.36084H189.553C189.634 9.37606 189.713 9.39832 189.79 9.42736C189.859 9.46287 189.923 9.50763 189.98 9.5604C190.06 9.62948 190.133 9.70583 190.199 9.78847L196.129 17.2768C196.129 17.0392 196.081 16.8016 196.062 16.583C196.043 16.3645 196.062 16.1459 196.062 15.9464V9.36084H198.609Z" fill="white"/>
<path d="M207.477 15.3665H211.915V20.6216C211.298 21.0757 210.607 21.4197 209.872 21.6384C209.137 21.8495 208.375 21.9551 207.61 21.952C206.655 21.9624 205.706 21.8015 204.807 21.4768C204.007 21.177 203.273 20.7216 202.65 20.1369C202.05 19.571 201.577 18.8843 201.262 18.1223C200.934 17.3171 200.769 16.4546 200.778 15.585C200.768 14.7088 200.923 13.8384 201.234 13.0193C201.532 12.2645 201.982 11.5789 202.555 11.0046C203.153 10.432 203.861 9.98596 204.636 9.69324C205.508 9.36779 206.433 9.2067 207.363 9.21809C207.854 9.21735 208.344 9.26189 208.827 9.35114C209.255 9.42701 209.676 9.54478 210.081 9.70274C210.455 9.83964 210.812 10.0181 211.145 10.2349C211.452 10.4274 211.739 10.6503 212.001 10.9001L211.155 12.1735C211.102 12.2665 211.03 12.3469 210.943 12.4092C210.856 12.4715 210.756 12.5143 210.651 12.5346C210.534 12.5565 210.414 12.5543 210.298 12.5281C210.182 12.502 210.073 12.4525 209.977 12.3826C209.749 12.2495 209.539 12.126 209.33 12.031C209.132 11.9307 208.925 11.848 208.713 11.7839C208.494 11.724 208.272 11.6796 208.047 11.6508C207.786 11.6191 207.522 11.6032 207.259 11.6033C206.755 11.5941 206.256 11.6947 205.795 11.8979C205.371 12.0795 204.994 12.3558 204.693 12.7057C204.373 13.068 204.131 13.4916 203.98 13.9505C203.812 14.4788 203.728 15.0305 203.733 15.585C203.725 16.1824 203.818 16.7768 204.009 17.3431C204.171 17.8265 204.433 18.2702 204.779 18.645C205.112 19.0004 205.521 19.2764 205.976 19.4527C206.469 19.645 206.995 19.7386 207.525 19.7283C207.844 19.7338 208.163 19.7019 208.475 19.6333C208.757 19.5615 209.033 19.4694 209.302 19.3577V17.4571H208.114C208.037 17.4631 207.959 17.4536 207.886 17.4291C207.812 17.4046 207.745 17.3657 207.686 17.3146C207.635 17.2677 207.594 17.2104 207.566 17.1465C207.538 17.0827 207.524 17.0136 207.525 16.944L207.477 15.3665Z" fill="white"/>
</g>
<path fill-rule="evenodd" clip-rule="evenodd" d="M27.9567 17.4368L35.1219 0.236498L21.6562 0.198486L27.9567 17.4368Z" fill="#FF5400"/>
<path fill-rule="evenodd" clip-rule="evenodd" d="M26.552 20.8199L22.3897 30.8074H21.7245L11.0527 0.246094H18.8071L26.552 20.8199Z" fill="#FF5400"/>
<path fill-rule="evenodd" clip-rule="evenodd" d="M15.1476 20.9529L10.0446 30.8454H9.29384L0 0.236572H8.03946L15.1476 20.9529Z" fill="#FF5400"/>
<defs>
<filter id="filter0_d_4247_913" x="34.9609" y="9.19849" width="181.04" height="20.7734" filterUnits="userSpaceOnUse" color-interpolation-filters="sRGB">
<feFlood flood-opacity="0" result="BackgroundImageFix"/>
<feColorMatrix in="SourceAlpha" type="matrix" values="0 0 0 0 0 0 0 0 0 0 0 0 0 0 0 0 0 0 127 0" result="hardAlpha"/>
<feOffset dy="4"/>
<feGaussianBlur stdDeviation="2"/>
<feComposite in2="hardAlpha" operator="out"/>
<feColorMatrix type="matrix" values="0 0 0 0 0 0 0 0 0 0 0 0 0 0 0 0 0 0 0.25 0"/>
<feBlend mode="normal" in2="BackgroundImageFix" result="effect1_dropShadow_4247_913"/>
<feBlend mode="normal" in="SourceGraphic" in2="effect1_dropShadow_4247_913" result="shape"/>
</filter>
</defs>
</svg>
